<!-- Generated by IcoMoon.io -->
<svg version="1.1" xmlns="http://www.w3.org/2000/svg" width="24" height="24" viewBox="0 0 24 24">
<title>qr_code</title>
<path d="M3 11.016h8.016v-8.016h-8.016v8.016zM5.016 5.016h3.984v3.984h-3.984v-3.984zM3 21h8.016v-8.016h-8.016v8.016zM5.016 15h3.984v3.984h-3.984v-3.984zM12.984 3v8.016h8.016v-8.016h-8.016zM18.984 9h-3.984v-3.984h3.984v3.984zM18.984 18.984h2.016v2.016h-2.016v-2.016zM12.984 12.984h2.016v2.016h-2.016v-2.016zM15 15h2.016v2.016h-2.016v-2.016zM12.984 17.016h2.016v1.969h-2.016v-1.969zM15 18.984h2.016v2.016h-2.016v-2.016zM17.016 17.016h1.969v1.969h-1.969v-1.969zM17.016 12.984h1.969v2.016h-1.969v-2.016zM18.984 15h2.016v2.016h-2.016v-2.016z"></path>
</svg>
